<?xml version="1.0" standalone="no"?>
<!DOCTYPE svg PUBLIC "-//W3C//DTD SVG 20010904//EN"
 "http://www.w3.org/TR/2001/REC-SVG-20010904/DTD/svg10.dtd">
<svg version="1.0" xmlns="http://www.w3.org/2000/svg"
 width="474.000000pt" height="474.000000pt" viewBox="0 0 474.000000 474.000000"
 preserveAspectRatio="xMidYMid meet">
<metadata>
Created by potrace 1.11, written by Peter Selinger 2001-2013
</metadata>
<g transform="translate(0.000000,474.000000) scale(0.100000,-0.100000)"
fill="#000000" stroke="none">
<path d="M2314 4620 c-5 -4 -34 -22 -64 -38 -30 -16 -194 -105 -365 -197 -440
-239 -436 -236 -480 -258 -37 -18 -63 -20 -410 -21 l-370 -1 -95 -67 c-106
-75 -111 -79 -158 -111 -48 -32 -125 -205 -118 -262 14 -105 19 -153 20 -185
1 -19 4 -37 7 -40 4 -3 10 -36 13 -75 4 -38 8 -81 11 -95 3 -14 7 -44 10 -65
2 -22 7 -56 10 -75 3 -19 7 -57 9 -85 3 -27 5 -50 6 -50 4 0 10 -44 13 -91 2
-28 7 -56 11 -62 3 -6 2 -14 -4 -17 -8 -5 -8 -11 -1 -19 6 -7 11 -28 12 -47 2
-19 5 -38 7 -43 3 -5 6 -24 8 -43 4 -49 12 -112 19 -154 3 -19 7 -53 9 -75 1
-22 6 -46 10 -52 4 -7 2 -12 -6 -12 -10 0 -10 -2 0 -9 8 -4 13 -11 13 -15 -1
-3 -1 -7 -1 -8 1 -2 3 -23 5 -48 2 -25 6 -62 9 -82 11 -70 26 -200 29 -250 1
-16 4 -28 8 -28 5 0 11 -55 13 -132 0 -25 4 -44 7 -42 4 2 7 -13 8 -34 0 -20
3 -48 6 -62 8 -32 15 -91 31 -229 2 -24 7 -48 10 -53 3 -5 0 -16 -8 -25 -11
-14 -11 -15 0 -9 10 6 13 3 11 -10 -1 -11 2 -27 6 -38 5 -11 3 -21 -5 -26 -10
-6 -10 -8 0 -12 7 -2 14 -20 16 -39 4 -60 14 -133 19 -138 3 -2 -1 -11 -8 -19
-10 -13 -9 -14 2 -7 11 6 13 4 8 -8 -3 -9 -3 -18 1 -21 5 -3 9 -23 10 -46 3
-47 20 -80 40 -80 8 0 12 -6 9 -13 -4 -10 2 -13 19 -9 14 2 24 0 24 -7 0 -6
11 -11 25 -11 26 0 34 -15 12 -23 -9 -4 -9 -6 0 -6 6 -1 14 3 18 8 5 10 67
-17 73 -31 2 -5 12 -8 21 -8 27 0 33 -12 13 -27 -15 -13 -15 -13 6 -3 34 17
125 -25 118 -55 -4 -18 -4 -18 7 -3 12 15 22 12 110 -31 53 -27 93 -51 89 -56
-4 -4 2 -5 14 -1 13 4 26 1 34 -9 7 -8 20 -15 30 -15 19 0 43 -23 35 -34 -3
-3 0 -2 7 3 15 13 71 -16 62 -31 -5 -7 -3 -8 5 -4 15 9 71 -12 71 -27 0 -6 3
-8 6 -4 3 3 28 -6 56 -20 27 -14 56 -26 63 -27 6 -1 24 -9 38 -19 15 -9 31
-17 37 -17 6 0 8 -5 5 -11 -4 -6 -1 -10 6 -8 31 4 41 -1 34 -18 -5 -14 -3 -15
6 -6 8 8 18 9 35 1 13 -6 22 -14 20 -17 -2 -3 7 -7 21 -8 14 0 29 -7 34 -15 5
-7 9 -10 9 -5 0 4 22 -4 50 -18 38 -19 48 -29 43 -43 -5 -14 -3 -14 9 2 14 17
16 18 24 3 5 -8 11 -15 14 -15 14 2 50 -15 50 -23 0 -6 4 -7 10 -4 5 3 10 2
10 -3 0 -5 6 -9 13 -9 6 0 44 -15 82 -33 39 -19 73 -33 78 -32 4 1 7 -3 7 -8
0 -6 7 -10 15 -10 8 0 15 -4 15 -8 0 -4 10 -8 22 -9 11 -1 25 -8 29 -15 5 -7
9 -9 9 -5 0 4 8 4 17 -2 13 -7 33 -1 75 20 32 16 58 26 58 22 0 -5 4 -3 8 3 4
6 16 16 27 21 15 9 22 7 33 -5 7 -10 11 -11 7 -4 -10 19 14 42 42 42 16 0 22
4 17 13 -4 6 -3 9 1 4 5 -4 15 -1 24 7 9 8 25 16 36 18 11 1 22 5 25 8 13 13
51 30 45 21 -3 -6 -1 -11 4 -11 6 0 11 7 11 15 0 8 7 15 16 15 14 0 15 -3 3
-18 -7 -9 2 -3 21 13 38 33 99 70 101 61 1 -3 2 -10 3 -15 0 -5 4 -12 9 -15 4
-3 5 -3 2 1 -3 3 3 12 13 20 16 12 16 13 0 7 -34 -12 -17 11 21 30 39 18 59
19 53 3 -1 -5 2 -6 7 -2 6 3 8 12 4 20 -4 11 -1 13 13 8 12 -4 15 -3 10 5 -5
8 2 12 19 12 15 0 24 4 20 10 -5 9 15 15 38 11 4 0 7 4 7 10 0 5 5 7 10 4 6
-3 10 -1 10 5 0 7 7 9 16 6 8 -3 13 -2 10 2 -2 4 7 12 20 19 18 8 23 8 18 0
-3 -7 0 -5 8 4 7 9 20 15 28 14 8 -1 24 2 35 7 18 8 18 8 -2 4 -34 -6 -28 11
7 19 16 4 32 11 35 16 4 5 15 9 25 9 10 0 20 6 23 13 3 9 8 9 21 -2 14 -12 16
-12 10 3 -5 14 0 18 22 15 4 0 10 3 13 8 8 13 73 44 66 32 -3 -5 1 -6 9 -3 9
3 13 11 9 17 -4 6 0 8 10 4 9 -3 18 0 21 9 7 19 26 18 40 -2 11 -14 13 -14 25
-1 9 12 9 17 0 23 -7 4 -9 3 -5 -4 3 -6 2 -13 -3 -16 -5 -3 -11 1 -15 9 -4 10
9 21 44 36 27 12 52 20 56 19 4 -1 10 4 14 11 5 7 15 9 26 4 31 -13 44 -14 51
-3 3 7 1 8 -5 4 -7 -4 -12 -1 -12 6 0 10 -2 10 -9 -1 -6 -9 -11 -10 -15 -2 -6
9 46 44 69 45 6 1 22 9 37 20 16 10 35 16 43 12 9 -3 14 -2 11 3 -3 4 6 13 21
20 22 10 25 10 19 -5 -5 -14 -4 -15 9 -4 8 7 13 16 10 20 -4 7 90 53 110 53 6
0 11 7 12 16 0 9 3 34 7 56 4 22 9 54 11 71 11 87 15 121 19 139 3 11 5 35 5
53 1 24 5 31 14 26 7 -5 6 0 -3 11 -14 17 -13 18 5 12 18 -7 19 -6 3 6 -10 8
-15 17 -12 20 4 3 9 26 11 49 3 24 10 46 17 50 8 6 7 8 -2 8 -9 0 -11 7 -7 21
4 12 9 41 10 67 2 25 10 49 17 53 7 5 8 9 2 9 -6 0 -11 7 -11 15 0 8 3 15 7
15 4 0 5 12 2 26 -4 21 -2 25 9 19 11 -6 11 -5 3 4 -7 8 -9 25 -5 44 4 18 7
39 6 47 0 8 6 21 15 28 8 8 10 11 3 8 -8 -4 -10 4 -8 26 2 18 4 35 5 38 1 3 2
9 1 14 -1 5 4 13 11 17 11 7 11 9 0 9 -7 0 -11 4 -7 9 3 6 7 29 10 53 10 103
21 183 25 183 1 0 3 20 5 45 3 25 6 60 7 78 2 18 10 37 18 42 10 7 11 10 3 10
-9 0 -12 13 -9 43 3 23 6 42 6 42 1 0 3 11 5 25 2 14 6 45 9 70 3 25 8 61 11
80 4 19 7 46 8 60 2 14 7 31 11 39 7 10 5 12 -4 6 -9 -5 -11 -4 -6 3 9 15 26
131 28 190 0 12 4 22 8 22 4 0 5 12 2 26 -4 21 -2 25 9 19 11 -7 12 -6 3 6 -6
8 -9 23 -7 34 2 11 4 28 4 38 0 9 3 17 7 17 4 0 7 17 6 38 -1 20 3 43 9 51 10
12 9 13 -2 6 -11 -6 -12 -5 -5 6 4 8 7 24 5 37 -1 12 1 22 6 22 5 0 8 12 7 28
0 15 4 30 10 34 8 5 7 8 -1 8 -7 0 -10 6 -7 13 6 16 11 58 13 100 1 20 5 26
14 21 9 -6 8 -3 -1 8 -9 12 -10 22 -4 35 5 10 7 24 4 32 -3 8 0 11 6 7 6 -3
14 -2 17 4 4 6 1 9 -6 8 -17 -4 -12 64 5 74 7 5 6 8 -4 8 -9 0 -11 3 -5 8 6 4
10 14 10 22 -1 8 3 20 7 27 5 6 5 14 -1 17 -6 4 -7 15 -2 29 6 16 3 36 -11 67
-11 25 -27 61 -35 80 -30 71 -43 86 -135 152 -206 148 -154 136 -568 136 -352
1 -376 2 -395 14 -5 3 -46 25 -90 48 -44 24 -153 83 -242 131 -90 49 -207 112
-260 141 -54 29 -116 62 -138 74 -155 84 -213 112 -221 104z m466 -4304 c0 -3
-4 -8 -10 -11 -5 -3 -10 -1 -10 4 0 6 5 11 10 11 6 0 10 -2 10 -4z"/>
<path d="M4027 879 c7 -7 15 -10 18 -7 3 3 -2 9 -12 12 -14 6 -15 5 -6 -5z"/>
<path d="M3977 865 c-4 -8 -3 -16 1 -19 4 -3 9 4 9 15 2 23 -3 25 -10 4z"/>
<path d="M656 858 c3 -4 11 -5 19 -1 21 7 19 12 -4 10 -11 0 -18 -5 -15 -9z"/>
<path d="M730 826 c0 -2 7 -7 16 -10 8 -3 12 -2 9 4 -6 10 -25 14 -25 6z"/>
<path d="M3876 813 c-6 -14 -5 -15 5 -6 7 7 10 15 7 18 -3 3 -9 -2 -12 -12z"/>
<path d="M3837 809 c7 -7 15 -10 18 -7 3 3 -2 9 -12 12 -14 6 -15 5 -6 -5z"/>
<path d="M3805 799 c-4 -6 -5 -12 -2 -15 2 -3 7 2 10 11 7 17 1 20 -8 4z"/>
<path d="M895 769 c-4 -6 -5 -12 -2 -15 2 -3 7 2 10 11 7 17 1 20 -8 4z"/>
<path d="M3750 770 c-9 -6 -10 -10 -3 -10 6 0 15 5 18 10 8 12 4 12 -15 0z"/>
<path d="M930 742 c0 -4 10 -9 22 -9 18 -2 20 0 8 7 -18 12 -30 13 -30 2z"/>
<path d="M3633 713 c-18 -7 -16 -20 2 -20 8 0 12 4 9 8 -2 4 2 10 8 12 7 3 9
5 3 5 -5 0 -16 -2 -22 -5z"/>
<path d="M1076 677 c3 -10 9 -15 12 -12 3 3 0 11 -7 18 -10 9 -11 8 -5 -6z"/>
<path d="M3529 657 c6 -8 7 -18 3 -22 -4 -5 -1 -5 6 -1 10 6 10 11 1 22 -6 8
-14 14 -16 14 -3 0 0 -6 6 -13z"/>
<path d="M1104 638 c10 -6 22 -6 26 -2 5 5 -3 10 -18 11 -22 1 -24 0 -8 -9z"/>
<path d="M1166 623 c-6 -14 -5 -15 5 -6 7 7 10 15 7 18 -3 3 -9 -2 -12 -12z"/>
<path d="M1215 620 c-3 -5 -1 -10 4 -10 6 0 11 5 11 10 0 6 -2 10 -4 10 -3 0
-8 -4 -11 -10z"/>
<path d="M3496 618 c3 -5 10 -6 15 -3 13 9 11 12 -6 12 -8 0 -12 -4 -9 -9z"/>
<path d="M1272 586 c7 -8 15 -12 17 -11 5 6 -10 25 -20 25 -5 0 -4 -6 3 -14z"/>
<path d="M1254 558 c-4 -7 -4 -10 1 -6 4 4 15 2 24 -5 14 -11 14 -10 2 6 -16
20 -18 21 -27 5z"/>
<path d="M1315 561 c-3 -5 0 -13 6 -17 7 -4 9 -3 5 4 -3 5 0 13 6 15 9 4 10 6
1 6 -6 1 -14 -3 -18 -8z"/>
<path d="M3336 561 c-3 -5 2 -15 12 -22 15 -12 16 -12 5 2 -7 9 -10 19 -6 22
3 4 4 7 0 7 -3 0 -8 -4 -11 -9z"/>
<path d="M1341 537 c-13 -21 -12 -21 5 -5 10 10 16 20 13 22 -3 3 -11 -5 -18
-17z"/>
<path d="M1415 520 c-3 -6 1 -13 9 -16 9 -3 13 -11 9 -17 -4 -6 -1 -7 7 -2 10
6 10 11 -3 20 -9 7 -14 15 -10 18 3 4 4 7 0 7 -3 0 -9 -5 -12 -10z"/>
<path d="M3246 498 c3 -5 10 -6 15 -3 13 9 11 12 -6 12 -8 0 -12 -4 -9 -9z"/>
<path d="M1535 451 c-3 -5 0 -13 6 -17 7 -4 9 -3 5 4 -3 6 2 13 11 15 16 4 16
5 1 6 -9 0 -19 -3 -23 -8z"/>
<path d="M1590 440 c8 -5 20 -10 25 -10 6 0 3 5 -5 10 -8 5 -19 10 -25 10 -5
0 -3 -5 5 -10z"/>
<path d="M3096 427 c3 -10 9 -15 12 -12 3 3 0 11 -7 18 -10 9 -11 8 -5 -6z"/>
<path d="M3020 405 c0 -8 29 -12 39 -5 9 5 4 8 -13 8 -14 0 -26 -2 -26 -3z"/>
<path d="M2935 360 c-3 -5 -1 -10 4 -10 6 0 11 5 11 10 0 6 -2 10 -4 10 -3 0
-8 -4 -11 -10z"/>
<path d="M1730 356 c0 -2 8 -10 18 -17 15 -13 16 -12 3 4 -13 16 -21 21 -21
13z"/>
<path d="M1798 323 c7 -3 16 -2 19 1 4 3 -2 6 -13 5 -11 0 -14 -3 -6 -6z"/>
<path d="M2835 319 c-11 -16 -1 -19 13 -3 7 8 8 14 3 14 -5 0 -13 -5 -16 -11z"/>
<path d="M1856 298 c3 -4 11 -5 19 -1 21 7 19 12 -4 10 -11 0 -18 -5 -15 -9z"/>
<path d="M2780 286 c0 -2 7 -6 15 -10 8 -3 15 -1 15 4 0 6 -7 10 -15 10 -8 0
-15 -2 -15 -4z"/>
<path d="M1930 265 c0 -5 5 -17 10 -25 5 -8 10 -10 10 -5 0 6 -5 17 -10 25 -5
8 -10 11 -10 5z"/>
<path d="M2755 260 c-3 -5 -1 -10 4 -10 6 0 11 5 11 10 0 6 -2 10 -4 10 -3 0
-8 -4 -11 -10z"/>
<path d="M1960 256 c0 -2 7 -7 16 -10 8 -3 12 -2 9 4 -6 10 -25 14 -25 6z"/>
<path d="M2681 253 c-1 -17 16 -25 25 -12 4 7 3 9 -4 5 -5 -3 -13 0 -15 6 -4
9 -6 10 -6 1z"/>
<path d="M2651 224 c0 -11 3 -14 6 -6 3 7 2 16 -1 19 -3 4 -6 -2 -5 -13z"/>
<path d="M1993 215 c0 -8 4 -12 9 -9 4 3 8 9 8 15 0 5 -4 9 -8 9 -5 0 -9 -7
-9 -15z"/>
<path d="M2547 187 c-3 -7 3 -13 14 -13 13 0 15 3 7 13 -6 7 -12 13 -13 13 -2
0 -5 -6 -8 -13z"/>
<path d="M2493 163 c4 -3 1 -13 -6 -22 -11 -14 -10 -14 5 -2 16 12 16 31 1 31
-4 0 -3 -3 0 -7z"/>
<path d="M2160 140 c-8 -5 0 -7 18 -7 17 1 29 4 26 6 -8 9 -31 9 -44 1z"/>
<path d="M2257 109 c7 -7 15 -10 18 -7 3 3 -2 9 -12 12 -14 6 -15 5 -6 -5z"/>
<path d="M2295 100 c-3 -5 -1 -10 4 -10 6 0 11 5 11 10 0 6 -2 10 -4 10 -3 0
-8 -4 -11 -10z"/>
<path d="M2356 102 c-3 -5 1 -9 9 -9 8 0 12 4 9 9 -3 4 -7 8 -9 8 -2 0 -6 -4
-9 -8z"/>
</g>
</svg>
